<svg width="246" height="50" viewBox="0 0 246 50" fill="none" xmlns="http://www.w3.org/2000/svg">
<rect width="246" height="50" rx="25" fill="white"/>
<path d="M17.1475 16.75H26.7475V20.29H20.9275V23.68H26.7475V27.1H20.9275V30.61H26.6275V34H17.1475V16.75ZM28.2175 30.61V34H37.8175V30.61H28.2175ZM37.8175 20.29V16.75H28.0975V20.29H37.8175ZM32.9575 27.1V23.68H28.0975V27.1H32.9575ZM49.2275 28.18L43.0175 34L39.6275 32.92L47.5475 25.39L39.6275 17.86L43.0175 16.75L49.2275 22.57V28.18ZM52.2575 25.39L60.2975 32.92L56.7875 34L50.5775 28.18V22.57L56.7875 16.75L60.2975 17.86L52.2575 25.39ZM62.4557 18.82L65.9657 16.75H72.1757V20.14H66.3557V30.49H72.0557V34H65.9657L62.4557 31.96V18.82ZM79.3457 28.42V30.49H73.6457V34H79.7357L83.2457 31.96V28.42H79.3457ZM83.2457 22.24V18.82L79.7357 16.75H73.5257V20.14H79.3457V22.24H83.2457ZM88.6318 16.75H98.2318V20.29H92.4118V23.68H98.2318V27.1H92.4118V30.61H98.1118V34H88.6318V16.75ZM99.7018 30.61V34H109.302V30.61H99.7018ZM109.302 20.29V16.75H99.5818V20.29H109.302ZM104.442 27.1V23.68H99.5818V27.1H104.442ZM113.212 16.75H116.992V30.49H122.692V34H113.212V16.75ZM124.282 30.49V34H133.882V30.49H124.282ZM137.177 16.75H140.957V30.49H146.657V34H137.177V16.75ZM148.247 30.49V34H157.847V30.49H148.247ZM161.142 16.75H170.742V20.29H164.922V23.68H170.742V27.1H164.922V30.61H170.622V34H161.142V16.75ZM172.212 30.61V34H181.812V30.61H172.212ZM181.812 20.29V16.75H172.092V20.29H181.812ZM176.952 27.1V23.68H172.092V27.1H176.952ZM185.722 16.75H189.142L195.322 22.57V27.1L189.502 21.49V34H185.722V16.75ZM202.612 29.14V16.75H206.392V34H202.852L196.672 28.06V23.68L202.612 29.14ZM230.952 20.14H222.312V34H218.172V20.14H210.282V16.75H230.952V20.14Z" fill="#1C5EEE"/>
</svg>
