<svg width="141" height="50" viewBox="0 0 141 50" fill="none" xmlns="http://www.w3.org/2000/svg">
<rect width="141" height="50" rx="25" fill="white"/>
<path d="M21.6158 18.82V31.96L25.1258 34H31.2158V30.61H25.5158V20.29H31.3358V16.75H25.1258L21.6158 18.82ZM42.4058 22.33H38.5058V20.29H32.6858V16.75H38.8958L42.4058 18.82V22.33ZM42.4058 23.68V31.96L38.8958 34H32.8058V30.61H38.5058V27.1H32.6858V23.68H42.4058ZM47.192 18.82L50.702 16.75H56.912V20.14H50.972V30.49H56.792V34H50.702L47.192 31.96V18.82ZM67.862 18.82L64.472 16.75H58.262V20.14H64.082V30.49H58.262V34H64.472L67.862 31.96V18.82ZM72.651 18.82L76.161 16.75H82.371V20.14H76.431V30.49H82.251V34H76.161L72.651 31.96V18.82ZM93.321 18.82L89.931 16.75H83.721V20.14H89.541V30.49H83.721V34H89.931L93.321 31.96V18.82ZM98.71 16.75H108.31V20.14H102.49V30.49H108.31V34H98.71V16.75ZM119.38 18.82L115.99 16.75H109.78V20.14H115.6V30.49H109.78V34H115.99L119.38 31.96V18.82Z" fill="#34C759"/>
</svg>
