<svg width="115" height="50" viewBox="0 0 115 50" fill="none" xmlns="http://www.w3.org/2000/svg">
<rect width="115" height="50" rx="25" fill="white"/>
<path d="M22.1191 16.75H31.7191V20.14H25.8991V23.68H31.7191V27.1H25.8991V30.49H31.7191V34H22.1191V16.75ZM42.7891 31.96V26.71L39.9691 25.39L42.7891 24.04V18.82L39.3991 16.75H33.1891V20.14H39.0091V23.68H33.1891V27.1H39.0091V30.49H33.1891V34H39.3991L42.7891 31.96ZM45.7477 18.82V34H49.5277V27.1H55.3477V23.68H49.5277V20.14H55.3477V16.75H49.1677L45.7477 18.82ZM66.4177 18.82V34H62.6377V27.1H56.6977V23.68H62.6377V20.14H56.6977V16.75H62.8777L66.4177 18.82ZM71.8066 16.75H81.4066V20.14H75.5866V30.49H81.4066V34H71.8066V16.75ZM92.4766 18.82L89.0866 16.75H82.8766V20.14H88.6966V30.49H82.8766V34H89.0866L92.4766 31.96V18.82Z" fill="#FF2D55"/>
</svg>
