<svg width="210" height="210" viewBox="0 0 210 210" fill="none" xmlns="http://www.w3.org/2000/svg">
<rect width="210" height="210" rx="54" fill="#1C5EEE"/>
<path fill-rule="evenodd" clip-rule="evenodd" d="M101.315 54.3412C100.64 53.8863 99.756 53.8863 99.0805 54.3412L87.4763 62.1575C85.8392 63.2602 86.6198 65.8163 88.5937 65.8163H92.9667V130.213C92.9667 140.347 87.3539 147.13 78.0773 147.13C68.8006 147.13 63.1878 140.347 63.1878 130.213V96.8216C63.1878 95.7171 62.2924 94.8216 61.1878 94.8216H51C49.8954 94.8216 49 95.7171 49 96.8216V130.213C49 148.221 60.6153 159.914 78.0773 159.914C95.5392 159.914 107.155 148.221 107.155 130.213V65.8163H111.802C113.776 65.8163 114.557 63.2602 112.919 62.1575L101.315 54.3412ZM118.831 158.354C117.726 158.354 116.831 157.459 116.831 156.354V96.8206C116.831 95.716 117.726 94.8206 118.831 94.8206H141.231C157.757 94.8206 167.424 104.019 167.424 118.051C167.424 132.239 157.757 141.438 141.231 141.438H133.019C131.914 141.438 131.019 142.333 131.019 143.438V156.354C131.019 157.459 130.123 158.354 129.019 158.354H118.831ZM131.019 126.887C131.019 127.992 131.914 128.887 133.019 128.887H140.607C148.481 128.887 153.236 125.145 153.236 118.051C153.236 111.035 148.481 107.371 140.607 107.371H133.019C131.914 107.371 131.019 108.267 131.019 109.371V126.887Z" fill="white"/>
<circle cx="57.2046" cy="70.2988" r="11.0164" transform="rotate(32.395 57.2046 70.2988)" fill="#00FF4C"/>
<circle cx="75.0614" cy="56.0226" r="6.08769" transform="rotate(32.395 75.0614 56.0226)" fill="#00FF4C"/>
</svg>
