<svg width="163" height="39" viewBox="0 0 163 39" fill="none" xmlns="http://www.w3.org/2000/svg">
<path d="M147.672 37.6012C147.12 37.6012 146.672 37.1535 146.672 36.6012V18.0964C146.672 17.5442 147.12 17.0964 147.672 17.0964H154.547C159.88 17.0964 163 20.0652 163 24.5939C163 29.1729 159.88 32.1417 154.547 32.1417H152.251C151.699 32.1417 151.251 32.5894 151.251 33.1417V36.6012C151.251 37.1535 150.803 37.6012 150.251 37.6012H147.672ZM151.251 27.091C151.251 27.6433 151.699 28.091 152.251 28.091H154.345C156.887 28.091 158.421 26.8834 158.421 24.5939C158.421 22.3296 156.887 21.1471 154.345 21.1471H152.251C151.699 21.1471 151.251 21.5948 151.251 22.1471V27.091Z" fill="#1C5EEE"/>
<path d="M124.78 28.5196V18.0973C124.78 17.5451 125.228 17.0973 125.78 17.0973H128.359C128.912 17.0973 129.359 17.5451 129.359 18.0973V28.5196C129.359 31.7903 131.171 33.9792 134.165 33.9792C137.159 33.9792 138.97 31.7903 138.97 28.5196V7.42139C138.97 6.8691 139.418 6.42139 139.97 6.42139H142.549C143.101 6.42139 143.549 6.8691 143.549 7.42139V28.5196C143.549 34.3314 139.8 38.1053 134.165 38.1053C128.529 38.1053 124.78 34.3314 124.78 28.5196Z" fill="#1C5EEE"/>
<path d="M140.745 4.16585C141.083 3.93838 141.525 3.93838 141.863 4.16585L144.447 5.90652C145.265 6.45789 144.875 7.73592 143.888 7.73592H138.72C137.733 7.73592 137.342 6.45789 138.161 5.90652L140.745 4.16585Z" fill="#1C5EEE"/>
<path d="M116.92 17.0964C117.679 17.0964 118.161 17.909 117.798 18.5754L111.053 30.9366C110.973 31.0835 110.931 31.2482 110.931 31.4155V36.6012C110.931 37.1535 110.483 37.6012 109.931 37.6012H107.352C106.8 37.6012 106.352 37.1535 106.352 36.6012V31.4155C106.352 31.2482 106.31 31.0835 106.23 30.9366L99.4854 18.5754C99.1218 17.909 99.6041 17.0964 100.363 17.0964H103.299C103.675 17.0964 104.019 17.3075 104.19 17.6428L107.949 25.0278C108.321 25.757 109.363 25.756 109.733 25.0259L113.471 17.6446C113.642 17.3084 113.986 17.0964 114.363 17.0964H116.92Z" fill="#1C5EEE"/>
<path d="M96.6387 17.0964C97.191 17.0964 97.6387 17.5442 97.6387 18.0964V20.1471C97.6387 20.6994 97.191 21.1471 96.6387 21.1471H91.9715C91.4192 21.1471 90.9715 21.5948 90.9715 22.1471V36.6012C90.9715 37.1535 90.5238 37.6012 89.9715 37.6012H87.3925C86.8403 37.6012 86.3925 37.1535 86.3925 36.6012V22.1471C86.3925 21.5948 85.9448 21.1471 85.3925 21.1471H80.7253C80.1731 21.1471 79.7253 20.6994 79.7253 20.1471V18.0964C79.7253 17.5442 80.1731 17.0964 80.7253 17.0964H96.6387Z" fill="#1C5EEE"/>
<path d="M78.4369 36.0592C78.8661 36.7246 78.3884 37.6012 77.5966 37.6012H74.6821C74.3347 37.6012 74.0122 37.4209 73.8302 37.125L70.4407 31.6116C70.2587 31.3156 69.9362 31.1353 69.5888 31.1353H67.4998C66.9475 31.1353 66.4998 31.583 66.4998 32.1353V36.6012C66.4998 37.1535 66.052 37.6012 65.4998 37.6012H62.9208C62.3685 37.6012 61.9208 37.1535 61.9208 36.6012V18.0964C61.9208 17.5442 62.3685 17.0964 62.9208 17.0964H70.173C75.381 17.0964 78.4252 19.864 78.4252 24.1159C78.4252 26.5195 77.455 28.4471 75.6707 29.6646C75.1705 30.0059 74.9686 30.6824 75.2969 31.1913L78.4369 36.0592ZM67.4998 21.1471C66.9475 21.1471 66.4998 21.5948 66.4998 22.1471V26.0847C66.4998 26.6369 66.9475 27.0847 67.4998 27.0847H69.9717C72.387 27.0847 73.8463 26.0531 73.8463 24.1159C73.8463 22.1786 72.387 21.1471 69.9717 21.1471H67.4998Z" fill="#1C5EEE"/>
<path d="M48.3809 38.1052C42.0156 38.1052 37.3108 33.5513 37.3108 27.337C37.3108 21.1227 42.0156 16.5688 48.3809 16.5688C54.7462 16.5688 59.4509 21.1227 59.4509 27.337C59.4509 33.5513 54.7462 38.1052 48.3809 38.1052ZM48.3809 33.9791C52.1044 33.9791 54.872 31.1864 54.872 27.337C54.872 23.4625 52.1044 20.695 48.3809 20.695C44.6573 20.695 41.8898 23.4625 41.8898 27.337C41.8898 31.1864 44.6573 33.9791 48.3809 33.9791Z" fill="#1C5EEE"/>
<path d="M20.6713 37.6012C20.119 37.6012 19.6713 37.1535 19.6713 36.6012V18.0964C19.6713 17.5442 20.119 17.0964 20.6713 17.0964H27.5461C32.8799 17.0964 35.9996 20.0652 35.9996 24.5939C35.9996 29.1729 32.8799 32.1417 27.5461 32.1417H25.2502C24.698 32.1417 24.2502 32.5894 24.2502 33.1417V36.6012C24.2502 37.1535 23.8025 37.6012 23.2502 37.6012H20.6713ZM24.2502 27.091C24.2502 27.6433 24.698 28.091 25.2502 28.091H27.3448C29.8859 28.091 31.4206 26.8834 31.4206 24.5939C31.4206 22.3296 29.8859 21.1471 27.3448 21.1471H25.2502C24.698 21.1471 24.2502 21.5948 24.2502 22.1471V27.091Z" fill="#1C5EEE"/>
<path d="M8.93153 16.5928C13.0883 16.5928 16.2913 18.8942 17.0161 22.2359C17.1379 22.7979 16.6739 23.2851 16.0989 23.2851H13.2857C12.7925 23.2851 12.3899 22.9168 12.2059 22.4593C11.688 21.1709 10.4569 20.417 8.62962 20.417C6.49109 20.417 5.3086 21.2724 5.3086 22.5052C5.3086 24.0399 6.89363 24.5683 10.894 25.3985C15.6239 26.3797 17.2341 28.7195 17.2341 31.789C17.2341 35.7138 13.5357 38.1039 8.95669 38.1039C4.31315 38.1039 0.815136 35.7917 0.118336 32.0243C0.0146139 31.4635 0.47672 30.9839 1.04703 30.9839H3.8248C4.32792 30.9839 4.73671 31.3665 4.92021 31.8349C5.5001 33.3154 7.06684 34.2546 9.28376 34.2546C11.1455 34.2546 12.5293 33.3237 12.5293 31.9902C12.5293 30.3549 11.1455 29.7007 7.49746 29.0214C3.04427 28.1912 0.628981 26.3546 0.628981 22.5052C0.628981 18.8068 4.30223 16.5928 8.93153 16.5928Z" fill="#1C5EEE"/>
<circle cx="120.414" cy="10.7511" r="4.64754" transform="rotate(32.395 120.414 10.7511)" fill="#00FF4C"/>
<circle cx="128.711" cy="7.47027" r="2.56823" transform="rotate(32.395 128.711 7.47027)" fill="#00FF4C"/>
</svg>
